<svg width="16" height="16" viewBox="0 0 16 16" fill="none" xmlns="http://www.w3.org/2000/svg">
<path d="M15.9732 11.0881C15.4063 12.3881 14.4947 13.5209 13.3302 14.3724C12.1657 15.2239 10.7895 15.764 9.34003 15.9384C7.8906 16.1128 6.41917 15.9153 5.07395 15.3657C3.72872 14.8162 2.55719 13.934 1.67734 12.808C0.797485 11.6821 0.240382 10.3521 0.0621324 8.95208C-0.116117 7.55204 0.0907801 6.13136 0.661988 4.83311C1.2332 3.53486 2.14855 2.40489 3.31585 1.55699C4.48316 0.709095 5.86121 0.173211 7.31121 0.00330877C7.41181 -0.00829322 7.51365 0.0107856 7.60246 0.0578727C7.69126 0.10496 7.7626 0.177696 7.80646 0.265893C7.85234 0.352461 7.86859 0.450852 7.85289 0.546908C7.83718 0.642964 7.79033 0.731732 7.71906 0.800438C7.12383 1.37072 6.65301 2.05044 6.33444 2.79944C6.01587 3.54845 5.85601 4.35152 5.86431 5.16121C5.87286 6.22547 6.16672 7.26945 6.71728 8.19142C7.26783 9.11339 8.0563 9.88192 9.00585 10.4221C9.9554 10.9623 11.0337 11.2558 12.1356 11.2739C13.2375 11.292 14.3254 11.0341 15.2935 10.5254C15.3834 10.4806 15.4851 10.4629 15.5855 10.4746C15.6859 10.4863 15.7804 10.5269 15.8567 10.5911C15.9217 10.6555 15.967 10.736 15.9875 10.8237C16.0081 10.9114 16.0031 11.0029 15.9732 11.0881Z" fill="white"/>
<defs>
<linearGradient id="paint0_linear_1942_7799" x1="8" y1="0" x2="8" y2="16" gradientUnits="userSpaceOnUse">
<stop stop-color="white"/>
<stop offset="1" stop-color="white"/>
</linearGradient>
</defs>
</svg>
