<svg width="21" height="21" viewBox="0 0 21 21" fill="none" xmlns="http://www.w3.org/2000/svg">
<path d="M10.4999 15.7492C13.3993 15.7492 15.7497 13.3988 15.7497 10.4994C15.7497 7.59995 13.3993 5.24951 10.4999 5.24951C7.60044 5.24951 5.25 7.59995 5.25 10.4994C5.25 13.3988 7.60044 15.7492 10.4999 15.7492Z" fill="white"/>
<path d="M19.9496 11.5496H18.8996C18.6211 11.5496 18.354 11.439 18.1571 11.2421C17.9602 11.0452 17.8496 10.7781 17.8496 10.4997C17.8496 10.2212 17.9602 9.95414 18.1571 9.75724C18.354 9.56033 18.6211 9.44971 18.8996 9.44971H19.9496C20.228 9.44971 20.4951 9.56033 20.692 9.75724C20.8889 9.95414 20.9995 10.2212 20.9995 10.4997C20.9995 10.7781 20.8889 11.0452 20.692 11.2421C20.4951 11.439 20.228 11.5496 19.9496 11.5496Z" fill="white"/>
<path d="M2.09994 11.5496H1.04997C0.771502 11.5496 0.504437 11.439 0.307529 11.2421C0.110622 11.0452 0 10.7781 0 10.4997C0 10.2212 0.110622 9.95414 0.307529 9.75724C0.504437 9.56033 0.771502 9.44971 1.04997 9.44971H2.09994C2.37841 9.44971 2.64548 9.56033 2.84238 9.75724C3.03929 9.95414 3.14991 10.2212 3.14991 10.4997C3.14991 10.7781 3.03929 11.0452 2.84238 11.2421C2.64548 11.439 2.37841 11.5496 2.09994 11.5496Z" fill="white"/>
<path d="M16.4417 5.60691C16.1808 5.59511 15.9338 5.48655 15.7487 5.30242C15.5531 5.1057 15.4434 4.83958 15.4434 4.56219C15.4434 4.28481 15.5531 4.01869 15.7487 3.82196L16.4942 3.07648C16.5883 2.96657 16.7041 2.8773 16.8344 2.81428C16.9646 2.75126 17.1065 2.71584 17.2511 2.71026C17.3957 2.70467 17.5399 2.72904 17.6747 2.78182C17.8094 2.83461 17.9318 2.91468 18.0341 3.017C18.1364 3.11933 18.2165 3.2417 18.2693 3.37644C18.3221 3.51117 18.3464 3.65537 18.3409 3.79997C18.3353 3.94457 18.2999 4.08646 18.2368 4.21672C18.1738 4.34699 18.0845 4.46282 17.9746 4.55694L17.2291 5.30242C17.1261 5.40491 17.0029 5.4849 16.8674 5.53731C16.7318 5.58972 16.5869 5.61342 16.4417 5.60691Z" fill="white"/>
<path d="M3.82229 18.228C3.6841 18.2288 3.54712 18.2023 3.4192 18.15C3.29127 18.0978 3.17492 18.0208 3.07681 17.9235C2.88125 17.7267 2.77148 17.4606 2.77148 17.1832C2.77148 16.9059 2.88125 16.6397 3.07681 16.443L3.82229 15.75C4.02315 15.578 4.28152 15.4881 4.54577 15.4983C4.81003 15.5085 5.0607 15.6181 5.24769 15.8051C5.43468 15.9921 5.54423 16.2428 5.55444 16.507C5.56464 16.7713 5.47476 17.0296 5.30275 17.2305L4.55727 17.976C4.35351 18.1509 4.09049 18.241 3.82229 18.228Z" fill="white"/>
<path d="M10.4992 3.14991C10.2207 3.14991 9.95366 3.03929 9.75675 2.84238C9.55984 2.64548 9.44922 2.37841 9.44922 2.09994V1.04997C9.44922 0.771502 9.55984 0.504437 9.75675 0.307529C9.95366 0.110622 10.2207 0 10.4992 0C10.7777 0 11.0447 0.110622 11.2416 0.307529C11.4385 0.504437 11.5492 0.771502 11.5492 1.04997V2.09994C11.5492 2.37841 11.4385 2.64548 11.2416 2.84238C11.0447 3.03929 10.7777 3.14991 10.4992 3.14991Z" fill="white"/>
<path d="M10.4992 20.9995C10.2207 20.9995 9.95366 20.8889 9.75675 20.692C9.55984 20.4951 9.44922 20.228 9.44922 19.9496V18.8996C9.44922 18.6211 9.55984 18.354 9.75675 18.1571C9.95366 17.9602 10.2207 17.8496 10.4992 17.8496C10.7777 17.8496 11.0447 17.9602 11.2416 18.1571C11.4385 18.354 11.5492 18.6211 11.5492 18.8996V19.9496C11.5492 20.228 11.4385 20.4951 11.2416 20.692C11.0447 20.8889 10.7777 20.9995 10.4992 20.9995Z" fill="white"/>
<path d="M4.55715 5.60664C4.2817 5.60548 4.01774 5.49612 3.82217 5.30214L3.07669 4.55666C2.90468 4.3558 2.81479 4.09743 2.825 3.83318C2.83521 3.56892 2.94475 3.31825 3.13175 3.13126C3.31874 2.94427 3.56941 2.83472 3.83367 2.82451C4.09792 2.81431 4.35629 2.90419 4.55715 3.0762L5.30263 3.82168C5.49819 4.01841 5.60796 4.28453 5.60796 4.56191C5.60796 4.8393 5.49819 5.10542 5.30263 5.30214C5.20452 5.39946 5.08817 5.47645 4.96024 5.5287C4.83232 5.58095 4.69533 5.60743 4.55715 5.60664Z" fill="white"/>
<path d="M17.1775 18.2275C16.9021 18.2264 16.6381 18.117 16.4426 17.923L15.7496 17.1775C15.6386 16.9781 15.5957 16.7479 15.6273 16.5218C15.6589 16.2957 15.7633 16.0861 15.9247 15.9247C16.0861 15.7633 16.2957 15.6589 16.5218 15.6273C16.7479 15.5957 16.9781 15.6386 17.1775 15.7496L17.923 16.4951C18.1186 16.6918 18.2283 16.9579 18.2283 17.2353C18.2283 17.5127 18.1186 17.7788 17.923 17.9755C17.7166 18.153 17.4493 18.2433 17.1775 18.2275Z" fill="white"/>
<defs>
<linearGradient id="paint0_linear_1942_7827" x1="10.4999" y1="5.24951" x2="10.4999" y2="15.7492" gradientUnits="userSpaceOnUse">
<stop stop-color="#02FF6F"/>
<stop offset="1" stop-color="#02F0E3"/>
</linearGradient>
<linearGradient id="paint1_linear_1942_7827" x1="19.4246" y1="9.44971" x2="19.4246" y2="11.5496" gradientUnits="userSpaceOnUse">
<stop stop-color="#02FF6F"/>
<stop offset="1" stop-color="#02F0E3"/>
</linearGradient>
<linearGradient id="paint2_linear_1942_7827" x1="1.57496" y1="9.44971" x2="1.57496" y2="11.5496" gradientUnits="userSpaceOnUse">
<stop stop-color="#02FF6F"/>
<stop offset="1" stop-color="#02F0E3"/>
</linearGradient>
<linearGradient id="paint3_linear_1942_7827" x1="16.8925" y1="2.70947" x2="16.8925" y2="5.60797" gradientUnits="userSpaceOnUse">
<stop stop-color="#02FF6F"/>
<stop offset="1" stop-color="#02F0E3"/>
</linearGradient>
<linearGradient id="paint4_linear_1942_7827" x1="4.16335" y1="15.4976" x2="4.16335" y2="18.2292" gradientUnits="userSpaceOnUse">
<stop stop-color="#02FF6F"/>
<stop offset="1" stop-color="#02F0E3"/>
</linearGradient>
<linearGradient id="paint5_linear_1942_7827" x1="10.4992" y1="0" x2="10.4992" y2="3.14991" gradientUnits="userSpaceOnUse">
<stop stop-color="#02FF6F"/>
<stop offset="1" stop-color="#02F0E3"/>
</linearGradient>
<linearGradient id="paint6_linear_1942_7827" x1="10.4992" y1="17.8496" x2="10.4992" y2="20.9995" gradientUnits="userSpaceOnUse">
<stop stop-color="#02FF6F"/>
<stop offset="1" stop-color="#02F0E3"/>
</linearGradient>
<linearGradient id="paint7_linear_1942_7827" x1="4.21609" y1="2.82373" x2="4.21609" y2="5.60665" gradientUnits="userSpaceOnUse">
<stop stop-color="#02FF6F"/>
<stop offset="1" stop-color="#02F0E3"/>
</linearGradient>
<linearGradient id="paint8_linear_1942_7827" x1="16.9228" y1="15.6172" x2="16.9228" y2="18.2293" gradientUnits="userSpaceOnUse">
<stop stop-color="#02FF6F"/>
<stop offset="1" stop-color="#02F0E3"/>
</linearGradient>
</defs>
</svg>
