<?xml version="1.0" encoding="iso-8859-1"?>
<!-- Generator: Adobe Illustrator 19.0.0, SVG Export Plug-In . SVG Version: 6.00 Build 0)  -->
<svg version="1.1" id="Layer_1" xmlns="http://www.w3.org/2000/svg" xmlns:xlink="http://www.w3.org/1999/xlink" x="0px" y="0px"
	 viewBox="0 0 512 512" style="enable-background:new 0 0 512 512;" xml:space="preserve">
<g>
	<g>
		<path d="M437.019,74.981C388.667,26.629,324.38,0,256,0S123.333,26.629,74.981,74.981C26.628,123.333,0,187.62,0,256
			c0,29.27,4.902,57.98,14.569,85.332c1.475,4.174,6.055,6.362,10.229,4.887c4.174-1.475,6.362-6.055,4.887-10.229
			c-9.059-25.632-13.652-52.545-13.652-79.99C16.033,123.682,123.682,16.033,256,16.033S495.967,123.682,495.967,256
			S388.318,495.967,256,495.967c-87.179,0-167.639-47.405-209.98-123.716c-2.147-3.87-7.028-5.27-10.899-3.12
			c-3.872,2.148-5.269,7.028-3.12,10.899C77.167,461.432,162.998,512,256,512c68.38,0,132.667-26.629,181.019-74.981
			C485.372,388.667,512,324.38,512,256S485.372,123.333,437.019,74.981z"/>
	</g>
</g>
<g>
	<g>
		<path d="M388.479,128.005c-22.171-28.818-54.738-49.677-91.7-58.735c-36.387-8.916-72.84-7.111-105.414,5.223
			c-30.013,11.367-56.065,31.218-75.335,57.408c-39.104,53.138-43.344,122.371-10.8,176.38c8.16,13.544,25.818,17.925,39.371,9.765
			c13.545-8.163,17.925-25.824,9.763-39.371c-20.544-34.096-17.456-78.363,7.868-112.776
			c27.535-37.419,72.727-52.714,120.895-40.913c42.594,10.437,85.068,47.868,77.671,105.391c-3.694,28.73-16.325,54.7-35.567,73.124
			c-15.878,15.206-34.401,23.285-49.549,21.607c-12.778-1.416-23.321-5.18-31.421-11.204c8.448-26.874,14.829-49.913,18.979-68.541
			c8.187-36.741,8.248-56.645,0.218-70.991c-5.318-9.495-13.971-15.76-24.369-17.64c-10.185-1.843-29.957-1.605-47.943,20.653
			c-11.881,14.701-20.676,37.096-24.127,61.44c-3.777,26.635-0.828,53.528,8.306,75.728c1.491,3.624,3.161,7.161,4.979,10.555
			c-17.005,50.808-34.438,95.682-34.615,96.139c-2.779,7.14-2.61,14.935,0.475,21.948c3.086,7.013,8.716,12.405,15.855,15.182
			c3.336,1.3,6.831,1.958,10.383,1.958c0.003,0,0.007,0,0.012-0.002c11.919,0,22.414-7.179,26.748-18.322
			c0.55-1.421,12.767-32.971,26.568-72.485c12.986,6.592,27.616,10.818,43.629,12.594c32.298,3.585,67.119-9.97,95.545-37.188
			c28.678-27.462,47.426-65.547,52.787-107.24C422.861,197.496,412.76,159.567,388.479,128.005z M401.789,235.651
			c-4.896,38.07-21.934,72.769-47.974,97.704c-24.987,23.925-55.124,35.888-82.689,32.833c-17.27-1.915-32.598-7.013-45.557-15.154
			c-2.071-1.302-4.624-1.585-6.931-0.772c-2.307,0.813-4.116,2.636-4.913,4.949c-14.942,43.375-28.924,79.489-29.521,81.024
			c-1.906,4.9-6.534,8.066-11.795,8.066c-0.002,0-0.004,0-0.005,0c-1.557,0-3.094-0.291-4.572-0.866
			c-3.148-1.225-5.632-3.603-6.993-6.696c-1.36-3.093-1.434-6.53-0.209-9.678c0.184-0.471,18.527-47.694,36.004-100.238
			c0.725-2.177,0.48-4.562-0.671-6.548c-2.162-3.732-4.117-7.711-5.813-11.826c-8.063-19.596-10.64-43.523-7.258-67.373
			c3.059-21.56,10.612-41.101,20.724-53.615c10.183-12.601,20.586-15.381,27.781-15.381c1.843,0,3.475,0.183,4.838,0.431
			c5.598,1.012,10.298,4.456,13.231,9.695c5.725,10.227,5.164,28.072-1.877,59.671c-4.311,19.343-11.119,43.67-20.234,72.303
			c-0.942,2.958-0.091,6.193,2.184,8.306c11.067,10.276,25.997,16.52,44.376,18.558c19.809,2.193,43.136-7.513,62.404-25.962
			c21.879-20.951,36.219-50.306,40.38-82.66c8.653-67.285-40.462-110.931-89.757-123.009
			c-54.674-13.393-106.121,4.17-137.625,46.983c-29.175,39.647-32.584,90.893-8.687,130.554c3.6,5.974,1.669,13.763-4.303,17.362
			c-5.979,3.598-13.766,1.665-17.363-4.305c-29.19-48.443-25.273-110.699,9.98-158.604c17.435-23.695,40.982-41.647,68.098-51.916
			c29.528-11.18,62.697-12.786,95.92-4.643c33.44,8.194,62.849,26.995,82.809,52.938
			C397.407,165.909,406.404,199.753,401.789,235.651z"/>
	</g>
</g>
<g>
</g>
<g>
</g>
<g>
</g>
<g>
</g>
<g>
</g>
<g>
</g>
<g>
</g>
<g>
</g>
<g>
</g>
<g>
</g>
<g>
</g>
<g>
</g>
<g>
</g>
<g>
</g>
<g>
</g>
</svg>
